HIERARCHY
ROOT Hips
{
  OFFSET 13.6774 106.653 -34.4427
  CHANNELS 6 Xposition Yposition Zposition Zrotation Xrotation Yrotation
  JOINT ToSpine
  {
    OFFSET -2.69724 7.43032 -0.144315
    CHANNELS 3 Zrotation Xrotation Yrotation
    JOINT Spine
    {
      OFFSET -0.0310711 10.7595 1.96963
      CHANNELS 3 Zrotation Xrotation Yrotation
      JOINT Spine1
      {
        OFFSET 19.9056 3.91189 0.764692
        CHANNELS 3 Zrotation Xrotation Yrotation
        JOINT Neck
        {
          OFFSET 25.9749 7.03908 -0.130764
          CHANNELS 3 Zrotation Xrotation Yrotation
          JOINT Head
          {
            OFFSET 9.52751 0.295786 -0.907742
            CHANNELS 3 Zrotation Xrotation Yrotation
            End Site
            {
              OFFSET 16.4037 0.713936 2.7358
            }
          }
        }
        JOINT LeftShoulder
        {
          OFFSET 17.7449 4.33886 11.7777
          CHANNELS 3 Zrotation Xrotation Yrotation
          JOINT LeftArm
          {
            OFFSET 0.911315 1.27913 9.80584
            CHANNELS 3 Zrotation Xrotation Yrotation
            JOINT LeftForeArm
            {
              OFFSET 28.6126 1.18197 -3.53199
              CHANNELS 3 Zrotation Xrotation Yrotation
              JOINT LeftHand
              {
                OFFSET 27.5088 0.0218783 0.327423
                CHANNELS 3 Zrotation Xrotation Yrotation
                End Site
                {
                  OFFSET 18.6038 -0.000155887 0.382096
                }
              }
            }
          }
        }
        JOINT RightShoulder
        {
          OFFSET 17.1009 2.89543 -12.2328
          CHANNELS 3 Zrotation Xrotation Yrotation
          JOINT RightArm
          {
            OFFSET 1.4228 0.178766 -10.211
            CHANNELS 3 Zrotation Xrotation Yrotation
            JOINT RightForeArm
            {
              OFFSET 28.733 1.87905 2.64907
              CHANNELS 3 Zrotation Xrotation Yrotation
              JOINT RightHand
              {
                OFFSET 27.4588 0.290562 -0.101845
                CHANNELS 3 Zrotation Xrotation Yrotation
                End Site
                {
                  OFFSET 17.8396 -0.255518 -0.000602873
                }
              }
            }
          }
        }
      }
    }
  }
  JOINT LeftUpLeg
  {
    OFFSET -5.61296 -2.22332 -10.2353
    CHANNELS 3 Zrotation Xrotation Yrotation
    JOINT LeftLeg
    {
      OFFSET 2.56703 -44.7417 -7.93097
      CHANNELS 3 Zrotation Xrotation Yrotation
      JOINT LeftFoot
      {
        OFFSET 3.16933 -46.5642 -3.96578
        CHANNELS 3 Zrotation Xrotation Yrotation
        JOINT LeftToeBase
        {
          OFFSET 0.346054 -6.02161 12.8035
          CHANNELS 3 Zrotation Xrotation Yrotation
          End Site
          {
            OFFSET 0.134235 -1.35082 5.13018
          }
        }
      }
    }
  }
  JOINT RightUpLeg
  {
    OFFSET -5.7928 -1.72406 10.6446
    CHANNELS 3 Zrotation Xrotation Yrotation
    JOINT RightLeg
    {
      OFFSET -2.57161 -44.7178 -7.85259
      CHANNELS 3 Zrotation Xrotation Yrotation
      JOINT RightFoot
      {
        OFFSET -3.10148 -46.5936 -4.03391
        CHANNELS 3 Zrotation Xrotation Yrotation
        JOINT RightToeBase
        {
          OFFSET -0.0828122 -6.13587 12.8035
          CHANNELS 3 Zrotation Xrotation Yrotation
          End Site
          {
            OFFSET -0.131328 -1.35082 5.13018
          }
        }
      }
    }
  }
}
MOTION
Frames: 14
Frame Time: 0.03333333333333333
0.0000 93.1000 0.0000 29.7760 50.9311 46.0051 -70.9996 -0.3058 88.0025 151.1526 67.0869 -59.3278 3.5180 27.0480 1.6776 -164.2034 24.6188 168.7559 -148.2186 62.0953 170.7515 0.6857 -3.6748 -19.1518 -94.8063 36.2235 -56.7765 -13.2681 52.0904 3.3530 14.6688 -0.8586 -1.8259 -0.5166 1.5552 14.1548 -89.4915 -50.2156 123.8360 10.5270 -3.8114 73.3041 9.9590 -0.2201 3.4067 1.9065 -2.6796 82.7381 -162.7582 73.3605 154.2251 6.3734 2.1183 -0.7350 -8.6341 -37.5067 15.6674 -55.0090 7.5174 85.3612 5.5975 56.8549 17.0107 -10.1449 -13.8882 1.4294 5.1789 -16.0652 -17.1487 
0.0000 93.1000 0.0000 30.0908 49.0550 40.8295 -70.9923 -0.4078 87.9999 151.1725 68.8110 -62.6254 3.0521 28.4573 -2.0853 -162.1093 26.0956 167.8902 -151.0991 63.7538 172.8547 1.3156 -4.1046 -20.1130 -93.7779 37.0920 -59.7970 -14.9676 51.6367 5.5993 13.6449 -1.1731 -2.1096 -0.0643 0.6664 13.0468 -86.8520 -48.3689 123.2526 14.2625 -3.1535 79.5881 9.6099 0.2810 4.4735 4.3831 -1.5994 90.8070 -87.7490 85.0682 77.8886 5.4926 1.0271 -0.9812 -8.9671 -39.6190 15.1883 -63.3780 4.1102 92.5937 2.6631 45.3832 11.3051 -7.5441 -12.3702 0.7721 -9.3649 4.6339 -3.5064 
0.0000 93.1000 0.0000 27.0046 49.8912 42.8537 -70.9799 0.1038 87.9987 143.0824 69.8844 -55.0139 6.7168 28.1224 -6.9038 -159.1926 25.8558 167.7904 -151.0741 63.7516 172.9079 1.5883 -3.7601 -22.8215 -92.2561 36.3161 -68.7819 -14.9129 47.8827 5.8186 12.4693 -1.0948 -2.8670 -0.1562 0.0312 15.4767 -78.8544 -45.6816 123.6133 14.0650 -3.4178 77.8099 8.0450 0.2728 5.0777 0.2154 -0.4708 96.1408 -13.9598 75.5479 0.9598 3.5483 2.8215 -1.1480 -8.4556 -39.0579 16.1063 -66.9316 3.5541 92.3777 1.2803 42.7481 5.2371 -2.8041 -0.2439 -0.1671 -36.4194 41.4797 38.1725 
0.0000 93.1000 0.0000 26.0835 51.9950 44.8483 -70.9774 0.1675 88.0017 136.1175 69.5480 -49.5936 9.9497 26.3362 -8.2519 -157.2685 25.0764 166.7234 -150.2257 62.9758 170.9176 2.1002 -2.8581 -26.7924 -87.9193 36.7807 -83.6897 -9.8592 38.2495 -1.9471 13.2448 -1.2337 -3.6069 -0.2081 0.2080 20.2050 -72.1937 -45.2036 122.9928 13.2890 -5.3739 68.4214 6.9284 0.3062 4.8723 -7.5632 0.1468 99.4732 -11.0854 71.0045 -3.0685 3.2320 2.3575 -1.4317 -8.2854 -36.5959 16.9051 -64.5320 6.7013 90.8038 4.7509 63.5845 1.3325 -3.8643 0.1069 0.0106 -39.5459 50.8814 39.6441 
0.0000 93.1000 0.0000 26.8538 57.0134 43.0972 -70.9878 0.2241 88.0068 133.0098 68.0518 -51.0031 12.1185 24.1318 -7.1889 -155.0601 23.8392 166.1761 -150.9533 62.3472 173.6723 2.2661 -2.6348 -29.1847 -72.3155 33.1266 -106.5443 -1.9710 22.7403 -12.9940 15.5833 -1.1787 -4.2225 -0.1985 0.6407 24.4898 -65.6559 -45.1570 119.0308 13.8290 -8.9901 55.1679 6.1508 0.2036 3.7672 -19.7207 -2.8697 101.2989 -10.0612 67.8857 -6.7320 4.7056 -0.4463 -1.7672 -8.1540 -30.8109 13.7349 -57.7542 6.7374 88.2509 68.6330 85.2907 -66.8776 -3.7461 0.2672 -0.0471 -22.9592 47.3256 7.1266 
0.0000 93.1000 0.0000 23.8528 59.6651 41.9883 -70.9988 0.1151 88.0105 130.0813 66.3513 -52.3924 11.0644 22.2403 -7.0390 -154.3967 24.3117 167.2331 -152.9249 63.1800 176.7616 1.9441 -2.1853 -30.3717 -60.2574 25.0667 -126.7496 3.4787 7.6704 -22.4245 17.0436 -1.3223 -4.3275 -0.2144 0.0936 28.8321 -60.9967 -46.5770 112.8879 13.6631 -12.8452 42.0102 6.3809 0.2810 2.6043 -30.5161 -10.0653 99.9202 -7.0162 62.3054 -9.9880 5.9641 6.3148 -1.2065 -10.0650 -45.2179 9.8107 -45.4196 2.5333 87.8507 166.3256 68.5252 -165.5668 -5.0201 -1.8436 -0.0137 -9.4308 39.1258 -8.5269 
0.0000 93.1000 0.0000 12.2157 62.0016 53.1292 -71.0144 0.1583 88.0035 123.2128 65.2680 -49.1248 6.5816 20.5363 -5.4960 -155.2280 24.7727 167.1805 -156.0409 63.5766 178.7423 -1.4941 -1.9935 -29.1030 -70.7783 28.9080 -138.6530 7.9274 8.6843 -33.3260 16.7343 -0.8543 -4.3847 -2.1532 0.6329 30.2179 -62.7824 -52.6954 96.7094 15.8008 -15.5408 40.1059 6.0998 -0.4825 0.5707 -37.0420 -16.2840 91.7227 -6.1732 58.9830 -6.6365 7.3948 1.6522 0.0178 -10.8536 -48.3967 10.3948 -24.8870 0.1392 87.9109 169.7295 52.9644 -170.8800 -5.9957 -1.8922 -0.8649 -0.7501 19.6711 -22.0275 
0.0000 93.1000 0.0000 7.9427 61.9953 58.0902 -70.9880 0.0111 88.0070 120.1097 65.3633 -45.1169 4.9064 19.1501 -1.8498 -157.2071 24.2329 169.3889 -158.0976 63.9558 -180.1889 4.1008 -1.7076 -25.7726 -76.0732 34.7602 -145.6017 15.1181 10.5641 -50.7157 19.6603 -1.8161 -5.7158 0.8519 1.1804 29.1973 -66.9522 -59.2256 81.3859 15.8533 -15.1290 41.5983 5.3672 0.3098 2.5369 -47.1355 -16.3676 84.7780 -5.1761 52.1462 -9.1787 8.7599 -1.1982 -3.1737 -10.1885 -46.8606 12.8903 -7.5084 0.6866 91.9640 169.5623 53.1601 -170.9886 -7.8097 -2.7388 1.9303 8.2175 4.6444 -22.1119 
0.0000 93.1000 0.0000 10.1891 58.7284 62.0356 -71.0063 -0.0980 87.9948 113.9582 64.6499 -36.7465 3.6796 17.4298 -0.1150 -158.3260 22.9507 171.4347 -156.0504 61.9664 176.4648 1.5345 -1.6214 -23.4964 -79.1183 37.0947 -144.7056 21.8319 8.0431 -66.8890 19.2933 -1.8057 -5.4944 -0.6833 1.4025 25.3416 -62.9695 -64.1508 76.8889 11.5562 -10.9125 41.1304 4.9626 0.0614 1.8951 -57.9087 -8.7612 83.0478 -2.2087 44.1522 -16.1944 4.7006 -3.8497 -1.4404 -7.7035 -35.7031 15.7793 2.8304 1.0087 90.9810 167.6164 66.4351 -167.8310 -9.2277 -4.9746 1.3311 8.4058 -7.3090 -20.4354 
0.0000 93.1000 0.0000 17.7741 58.3268 59.3327 -70.9969 -0.1515 87.9922 118.0908 63.5164 -37.7676 4.1412 16.6411 2.2399 -159.1204 20.8286 170.5658 -153.1303 59.3987 173.5477 1.8057 -1.5703 -22.1831 -78.2243 38.3165 -137.5804 25.0098 7.4580 -75.3392 19.8159 -1.7719 -6.3378 -0.7439 2.3688 25.3635 -60.1324 -64.3061 74.9652 6.7251 -5.8685 39.9893 4.0305 -0.3080 1.7893 -68.5640 0.5526 92.3188 4.8300 37.0374 -25.9632 -0.6707 -0.2749 -0.5197 -5.6572 -11.9887 11.8302 2.7377 2.5257 87.2853 81.4343 85.2455 -82.0343 -8.8485 -5.9473 1.9868 9.8812 -13.7590 -19.4170 
0.0000 93.1000 0.0000 24.9988 56.6815 53.1483 -71.0013 -0.2280 87.9939 119.0349 63.2310 -36.3593 6.1014 16.7490 2.3095 -160.3081 19.1961 169.3726 -150.9726 56.9387 170.6309 1.6811 -1.6713 -21.9142 -77.2576 39.0715 -127.6934 21.0078 8.2812 -67.9278 18.9007 -1.7568 -5.9882 -0.9206 2.8315 27.7629 -61.7727 -62.5050 76.1028 1.9874 -0.2033 37.9856 3.7457 -0.3126 1.7121 -72.3879 0.1454 78.9896 -4.4777 44.2916 -10.3356 -0.2258 6.2766 -0.0286 -5.7800 -11.7345 17.0985 -1.5351 2.4062 83.9941 4.6484 65.5145 -1.9144 -7.5092 -1.3573 1.3209 9.5233 -18.9798 -15.7056 
0.0000 93.1000 0.0000 31.9109 56.7851 48.0359 -70.9979 0.0621 87.9984 121.0863 63.2969 -36.9995 10.3601 16.9778 1.0932 -160.2060 18.8655 170.5421 -151.4279 55.9594 170.6582 1.7247 -1.9040 -23.9226 -73.6909 38.6563 -124.4946 15.0812 10.5551 -47.7372 16.6316 -1.4994 -5.2418 -0.7577 2.0750 29.8181 -66.8945 -57.7404 75.9110 -0.0704 2.7772 40.1335 3.2471 -0.0954 2.0563 -68.9510 -3.6808 76.8856 -10.2929 70.1005 -2.3612 -0.6801 8.8190 0.2183 -5.5118 -20.1531 16.9207 -6.9170 0.4071 79.7150 2.6770 55.9994 1.0406 -5.1000 -1.5104 0.1911 5.6565 -3.0715 -12.3775 
0.0000 93.1000 0.0000 42.8622 55.6949 41.0066 -70.9894 0.2407 87.9994 124.8891 63.3414 -37.5868 14.1934 18.0135 0.1595 -159.2452 18.0183 172.2378 -149.5749 54.7096 170.9892 2.8330 -1.2805 -26.9723 -62.3572 34.7307 -126.6285 7.0635 13.2582 -25.6341 16.5044 -1.3145 -4.0701 -0.1187 0.7176 30.3681 -70.8988 -54.5296 79.9423 0.1937 2.1208 42.8899 3.3899 0.1051 2.5098 -64.2586 -1.3394 79.6611 -142.6826 82.0853 131.1889 0.6957 7.5715 -0.4839 -6.0215 -15.0668 13.5203 -14.3837 3.2647 73.1494 3.6466 58.8411 2.8678 -5.2575 -1.8564 -0.2375 4.7977 4.2504 -18.3693 
0.0000 93.1000 0.0000 50.8361 52.8923 36.8503 -70.9908 0.3134 87.9918 130.0327 63.0312 -39.6603 13.3635 19.0324 0.6337 -160.2073 16.8778 172.2694 -147.4991 53.3178 168.5242 2.7527 0.0479 -29.6099 -81.0661 41.4274 -105.6097 0.8143 37.4878 -12.7200 16.6791 -0.8983 -2.5693 -0.0588 -0.1360 30.8202 -73.9616 -51.6086 86.8923 2.7696 -0.8242 44.1269 4.0031 -0.0843 2.6940 -52.8224 2.6981 80.7470 -168.0787 61.2171 156.9853 1.8603 7.1023 -0.6633 -5.9178 -18.1941 15.6745 -20.8780 9.1398 69.6777 5.7091 65.1908 3.8280 -5.8076 -6.5205 0.0848 7.5644 -1.1206 -23.0226 
